#N canvas 4 44 1366 685 12;
#X msg 22 210 set \$1;
#X obj 12 51 r param;
#X obj 22 234 s \$2-r;
#X obj 12 80 route \$1;
#X obj 12 263 s \$2;
#X obj 12 181 change -1e+37;
#X obj 12 109 t f f;
#X obj 12 157 -, f 5;
#X obj 44 133 wrap;
#X obj 12 12 ./param.set \$1 \$2;
#X connect 0 0 2 0;
#X connect 1 0 3 0;
#X connect 3 0 6 0;
#X connect 5 0 0 0;
#X connect 5 0 4 0;
#X connect 6 0 7 0;
#X connect 6 1 8 0;
#X connect 7 0 5 0;
#X connect 8 0 7 1;
