#N canvas 343 106 1366 685 12;
#X msg 22 186 set \$1;
#X obj 12 51 r param;
#X obj 22 210 s \$2-r;
#X obj 12 80 route \$1;
#X obj 12 239 s \$2;
#X obj 12 157 change -1e+37;
#X obj 12 133 /;
#X obj 12 109 t f f;
#X obj 12 12 ./param.set \$1 \$2;
#X connect 0 0 2 0;
#X connect 1 0 3 0;
#X connect 3 0 7 0;
#X connect 5 0 0 0;
#X connect 5 0 4 0;
#X connect 6 0 5 0;
#X connect 7 0 6 0;
#X connect 7 1 6 1;
