#N canvas 4 0 1366 685 12;
#X obj 163 71 unpack 0 0 0 0, f 18;
#X obj 105 486 osc~;
#X obj 105 515 *~, f 15;
#X obj 105 399 line~;
#X obj 163 13 inlet;
#X obj 26 1230 outlet~;
#X obj 105 312 f;
#X obj 207 399 f;
#X obj 207 486 line~;
#X obj 105 544 *~, f 34;
#X obj 12 42 t b b;
#X obj 207 428 pack f f;
#X msg 207 457 \$1 \$2;
#X obj 105 341 pack f f;
#X msg 105 370 \$1 \$2;
#X obj 340 428 pack f f;
#X msg 340 457 \$1 \$2;
#X obj 340 486 line~;
#X obj 340 515 clip~ 0 1;
#X obj 44 1003 clip 0 1;
#X obj 26 1114 *, f 5;
#X obj 26 1172 line~;
#X obj 26 1143 pack f f;
#X obj 44 800 f \$2;
#X obj 163 42 route \$2;
#X obj 340 239 f \$2;
#X obj 26 1201 delread4~ \$0-del\$2;
#X obj 105 771 delwrite~ \$0-del\$2 4000;
#X obj 173 201 pow, f 5;
#X obj 173 153 t b f;
#X msg 173 177 2;
#X obj 205 177 / 12;
#X obj 173 225 t b f;
#X obj 163 254 *, f 5;
#X obj 398 210 r \$1-link-gains;
#X obj 340 297 spigot;
#X obj 408 297 spigot;
#X obj 447 268 == 0;
#X obj 340 326 tabread \$1-gains-l;
#X obj 408 355 tabread \$1-gains-\$3;
#X obj 398 384 f;
#X obj 340 355 f;
#X obj 398 239 t b f;
#X text 340 27 \$1: valor \$0 del parche madre;
#X text 340 47 \$2: número de parcial (0-15);
#X text 340 67 \$3: canal ("l" o "r");
#N canvas 485 130 450 300 gliss-link 0;
#X obj 71 189 spigot;
#X obj 127 189 spigot;
#X obj 166 160 == 0;
#X obj 110 131 t b f;
#X obj 71 160 f;
#X obj 127 160 f;
#X obj 71 232 outlet;
#X obj 71 49 r \$1-gliss-l;
#X obj 127 78 r \$1-gliss-\$3;
#X obj 110 107 r \$1-link-gliss;
#X connect 0 0 6 0;
#X connect 1 0 6 0;
#X connect 2 0 1 1;
#X connect 3 0 5 0;
#X connect 3 0 4 0;
#X connect 3 1 2 0;
#X connect 3 1 0 1;
#X connect 4 0 0 0;
#X connect 5 0 1 0;
#X connect 7 0 4 0;
#X connect 8 0 5 0;
#X connect 9 0 3 0;
#X restore 158 312 pd gliss-link;
#X obj 44 887 spigot;
#X obj 102 887 spigot;
#X obj 141 858 == 0;
#X obj 92 974 f;
#X obj 44 974 f;
#X obj 92 829 t b f;
#X obj 92 800 r \$1-link-delays;
#X obj 102 945 tabread \$1-delays-\$3;
#X obj 44 916 tabread \$1-delays-l;
#N canvas 601 197 450 300 transp-link 0;
#X obj 71 189 spigot;
#X obj 127 189 spigot;
#X obj 166 160 == 0;
#X obj 110 131 t b f;
#X obj 71 160 f;
#X obj 127 160 f;
#X obj 71 232 outlet;
#X obj 71 49 r \$1-transp-l;
#X obj 127 78 r \$1-transp-\$3;
#X obj 110 107 r \$1-link-transp;
#X connect 0 0 6 0;
#X connect 1 0 6 0;
#X connect 2 0 1 1;
#X connect 3 0 5 0;
#X connect 3 0 4 0;
#X connect 3 1 2 0;
#X connect 3 1 0 1;
#X connect 4 0 0 0;
#X connect 5 0 1 0;
#X connect 7 0 4 0;
#X connect 8 0 5 0;
#X connect 9 0 3 0;
#X restore 173 129 pd transp-link;
#N canvas 500 85 450 300 gains-lerp-link 0;
#X obj 71 189 spigot;
#X obj 127 189 spigot;
#X obj 166 160 == 0;
#X obj 110 131 t b f;
#X obj 71 160 f;
#X obj 127 160 f;
#X obj 71 232 outlet;
#X obj 71 49 r \$1-gains-lerp-l;
#X obj 127 78 r \$1-gains-lerp-\$3;
#X obj 110 107 r \$1-link-gains-lerp;
#X connect 0 0 6 0;
#X connect 1 0 6 0;
#X connect 2 0 1 1;
#X connect 3 0 5 0;
#X connect 3 0 4 0;
#X connect 3 1 2 0;
#X connect 3 1 0 1;
#X connect 4 0 0 0;
#X connect 5 0 1 0;
#X connect 7 0 4 0;
#X connect 8 0 5 0;
#X connect 9 0 3 0;
#X restore 260 384 pd gains-lerp-link;
#N canvas 52 52 450 300 delays-lerp-link 0;
#X obj 71 189 spigot;
#X obj 127 189 spigot;
#X obj 166 160 == 0;
#X obj 110 131 t b f;
#X obj 71 160 f;
#X obj 127 160 f;
#X obj 71 232 outlet;
#X obj 127 78 r \$1-delays-lerp-\$3;
#X obj 110 107 r \$1-link-delays-lerp;
#X obj 71 49 r \$1-delays-lerp-l;
#X connect 0 0 6 0;
#X connect 1 0 6 0;
#X connect 2 0 1 1;
#X connect 3 0 5 0;
#X connect 3 0 4 0;
#X connect 3 1 2 0;
#X connect 3 1 0 1;
#X connect 4 0 0 0;
#X connect 5 0 1 0;
#X connect 7 0 5 0;
#X connect 8 0 3 0;
#X connect 9 0 4 0;
#X restore 79 1114 pd delays-lerp-link;
#N canvas 354 92 717 587 delays-range-link 0;
#X obj 71 189 spigot;
#X obj 127 189 spigot;
#X obj 166 160 == 0;
#X obj 110 131 t b f;
#X obj 71 160 f;
#X obj 127 160 f;
#X obj 71 232 outlet;
#X obj 110 107 r \$1-link-delays-range;
#X obj 127 78 r \$1-delays-range-\$3;
#X obj 71 49 r \$1-delays-range-l;
#X obj 281 49 r \$1-delays-random-l;
#X obj 337 78 r \$1-delays-random-\$3;
#X obj 547 78 r \$1-delays-reset-\$3;
#X obj 491 49 r \$1-delays-reset-l;
#X obj 491 73 delay 1;
#X obj 547 102 delay 1;
#X obj 281 73 delay 1;
#X obj 337 102 delay 1;
#X connect 0 0 6 0;
#X connect 1 0 6 0;
#X connect 2 0 1 1;
#X connect 3 0 5 0;
#X connect 3 0 4 0;
#X connect 3 1 2 0;
#X connect 3 1 0 1;
#X connect 4 0 0 0;
#X connect 5 0 1 0;
#X connect 7 0 3 0;
#X connect 8 0 5 0;
#X connect 9 0 4 0;
#X connect 10 0 16 0;
#X connect 11 0 17 0;
#X connect 12 0 15 0;
#X connect 13 0 14 0;
#X connect 14 0 4 0;
#X connect 15 0 5 0;
#X connect 16 0 4 0;
#X connect 17 0 5 0;
#X restore 26 1056 pd delays-range-link;
#N canvas 500 0 856 676 am-link 0;
#X obj 171 259 spigot;
#X obj 227 259 spigot;
#X obj 266 160 == 0;
#X obj 210 131 t b f;
#X obj 171 230 f;
#X obj 227 230 f;
#X obj 21 77 inlet;
#X obj 21 101 random 4;
#X obj 21 125 sel 0;
#X obj 171 49 r \$1-am-center-l;
#X obj 227 78 r \$1-am-center-\$3;
#X obj 361 49 r \$1-am-range-l;
#X obj 417 78 r \$1-am-range-\$3;
#X obj 541 49 r \$1-am-amount-l;
#X obj 597 78 r \$1-am-amount-\$3;
#X obj 361 259 spigot;
#X obj 417 259 spigot;
#X obj 361 230 f;
#X obj 417 230 f;
#X obj 541 259 spigot;
#X obj 597 259 spigot;
#X obj 541 230 f;
#X obj 597 230 f;
#X obj 171 302 f;
#X obj 361 302 f;
#X obj 541 302 f;
#X obj 181 344 random 1000;
#X obj 181 368 * 0.002;
#X obj 181 392 - 1;
#X obj 181 416 *;
#X obj 171 469 +, f 5;
#X obj 181 440 t b f;
#X msg 171 517 \$1 10;
#X obj 171 541 line~;
#X obj 171 493 * 0.1;
#X obj 171 565 osc~;
#X obj 125 666 -~, f 7;
#X obj 171 637 *~, f 8;
#X obj 171 613 *~ 0.5;
#X obj 171 589 -~ 1;
#X obj 541 326 * 0.01;
#X obj 541 350 t b f;
#X msg 541 374 1;
#X obj 541 398 -, f 5;
#X msg 125 613 \$1 10;
#X obj 125 637 line~;
#X msg 224 589 \$1 10;
#X obj 224 613 line~;
#X obj 125 690 outlet~;
#X obj 210 107 r \$1-link-am;
#X connect 0 0 23 0;
#X connect 1 0 23 0;
#X connect 2 0 1 1;
#X connect 2 0 16 1;
#X connect 2 0 20 1;
#X connect 3 0 5 0;
#X connect 3 0 4 0;
#X connect 3 0 17 0;
#X connect 3 0 18 0;
#X connect 3 0 21 0;
#X connect 3 0 22 0;
#X connect 3 1 2 0;
#X connect 3 1 0 1;
#X connect 3 1 15 1;
#X connect 3 1 19 1;
#X connect 4 0 0 0;
#X connect 5 0 1 0;
#X connect 6 0 7 0;
#X connect 7 0 8 0;
#X connect 8 0 26 0;
#X connect 9 0 4 0;
#X connect 10 0 5 0;
#X connect 11 0 17 0;
#X connect 12 0 18 0;
#X connect 13 0 21 0;
#X connect 14 0 22 0;
#X connect 15 0 24 0;
#X connect 16 0 24 0;
#X connect 17 0 15 0;
#X connect 18 0 16 0;
#X connect 19 0 25 0;
#X connect 20 0 25 0;
#X connect 21 0 19 0;
#X connect 22 0 20 0;
#X connect 23 0 30 0;
#X connect 24 0 29 1;
#X connect 25 0 40 0;
#X connect 26 0 27 0;
#X connect 27 0 28 0;
#X connect 28 0 29 0;
#X connect 29 0 31 0;
#X connect 30 0 34 0;
#X connect 31 0 30 0;
#X connect 31 1 30 1;
#X connect 32 0 33 0;
#X connect 33 0 35 0;
#X connect 34 0 32 0;
#X connect 35 0 39 0;
#X connect 36 0 48 0;
#X connect 37 0 36 1;
#X connect 38 0 37 0;
#X connect 39 0 38 0;
#X connect 40 0 41 0;
#X connect 41 0 42 0;
#X connect 41 1 43 1;
#X connect 41 1 46 0;
#X connect 42 0 43 0;
#X connect 43 0 44 0;
#X connect 44 0 45 0;
#X connect 45 0 36 0;
#X connect 46 0 47 0;
#X connect 47 0 37 1;
#X connect 49 0 3 0;
#X restore 137 602 pd am-link;
#X obj 105 631 *~, f 5;
#X obj 123 713 ./adsr~;
#X msg 123 684 1;
#X obj 105 742 *~;
#N canvas 500 0 856 676 env-link 0;
#X obj 21 259 spigot;
#X obj 77 259 spigot;
#X obj 116 160 == 0;
#X obj 60 131 t b f;
#X obj 21 230 f;
#X obj 77 230 f;
#X obj 211 259 spigot;
#X obj 267 259 spigot;
#X obj 211 230 f;
#X obj 267 230 f;
#X obj 391 259 spigot;
#X obj 447 259 spigot;
#X obj 391 230 f;
#X obj 447 230 f;
#X obj 21 302 f;
#X obj 211 302 f;
#X obj 391 302 f;
#X obj 581 259 spigot;
#X obj 637 259 spigot;
#X obj 581 230 f;
#X obj 637 230 f;
#X obj 581 302 f;
#X obj 21 49 r \$1-attack-l;
#X obj 60 107 r \$1-link-env;
#X obj 77 78 r \$1-attack-\$3;
#X obj 211 49 r \$1-decay-l;
#X obj 267 78 r \$1-decay-\$3;
#X obj 391 49 r \$1-sustain-l;
#X obj 447 78 r \$1-sustain-\$3;
#X obj 581 49 r \$1-legato-l;
#X obj 637 78 r \$1-legato-\$3;
#X msg 21 356 att \$1;
#X msg 211 356 dec \$1;
#X obj 391 326 * 0.01;
#X msg 391 356 sus \$1;
#X msg 581 356 legato \$1;
#X obj 21 470 outlet;
#X connect 0 0 14 0;
#X connect 1 0 14 0;
#X connect 2 0 1 1;
#X connect 2 0 7 1;
#X connect 2 0 11 1;
#X connect 3 0 5 0;
#X connect 3 0 4 0;
#X connect 3 0 8 0;
#X connect 3 0 9 0;
#X connect 3 0 12 0;
#X connect 3 0 13 0;
#X connect 3 1 2 0;
#X connect 3 1 0 1;
#X connect 3 1 6 1;
#X connect 3 1 10 1;
#X connect 4 0 0 0;
#X connect 5 0 1 0;
#X connect 6 0 15 0;
#X connect 7 0 15 0;
#X connect 8 0 6 0;
#X connect 9 0 7 0;
#X connect 10 0 16 0;
#X connect 11 0 16 0;
#X connect 12 0 10 0;
#X connect 13 0 11 0;
#X connect 14 0 31 0;
#X connect 15 0 32 0;
#X connect 16 0 33 0;
#X connect 17 0 21 0;
#X connect 18 0 21 0;
#X connect 19 0 17 0;
#X connect 20 0 18 0;
#X connect 21 0 35 0;
#X connect 22 0 4 0;
#X connect 23 0 3 0;
#X connect 24 0 5 0;
#X connect 25 0 8 0;
#X connect 26 0 9 0;
#X connect 27 0 12 0;
#X connect 28 0 13 0;
#X connect 29 0 19 0;
#X connect 30 0 20 0;
#X connect 31 0 36 0;
#X connect 32 0 36 0;
#X connect 33 0 34 0;
#X connect 34 0 36 0;
#X connect 35 0 36 0;
#X restore 169 631 pd env-link;
#X obj 179 660 loadbang;
#X msg 179 684 anticlick 1 \, log 1;
#N canvas 500 0 856 676 fm-link 0;
#X obj 171 259 spigot;
#X obj 227 259 spigot;
#X obj 266 160 == 0;
#X obj 210 131 t b f;
#X obj 171 230 f;
#X obj 227 230 f;
#X obj 21 77 inlet;
#X obj 21 101 random 4;
#X obj 21 125 sel 0;
#X obj 361 259 spigot;
#X obj 417 259 spigot;
#X obj 361 230 f;
#X obj 417 230 f;
#X obj 541 259 spigot;
#X obj 597 259 spigot;
#X obj 541 230 f;
#X obj 597 230 f;
#X obj 171 302 f;
#X obj 361 302 f;
#X obj 541 302 f;
#X obj 181 344 random 1000;
#X obj 181 368 * 0.002;
#X obj 181 392 - 1;
#X obj 181 416 *;
#X obj 171 469 +, f 5;
#X obj 181 440 t b f;
#X msg 171 517 \$1 10;
#X obj 171 541 line~;
#X obj 171 493 * 0.1;
#X obj 171 565 osc~;
#X obj 171 637 *~, f 8;
#X obj 171 613 *~ 0.5;
#X obj 541 350 t b f;
#X msg 541 374 1;
#X obj 541 398 -, f 5;
#X msg 224 589 \$1 10;
#X obj 224 613 line~;
#X obj 171 661 outlet~;
#X obj 171 589 *~ 1;
#X obj 171 49 r \$1-fm-center-l;
#X obj 227 78 r \$1-fm-center-\$3;
#X obj 210 107 r \$1-link-fm;
#X obj 361 49 r \$1-fm-range-l;
#X obj 417 78 r \$1-fm-range-\$3;
#X obj 541 49 r \$1-fm-amount-l;
#X obj 597 78 r \$1-fm-amount-\$3;
#X obj 541 326 * 2;
#X connect 0 0 17 0;
#X connect 1 0 17 0;
#X connect 2 0 1 1;
#X connect 2 0 10 1;
#X connect 2 0 14 1;
#X connect 3 0 5 0;
#X connect 3 0 4 0;
#X connect 3 0 11 0;
#X connect 3 0 12 0;
#X connect 3 0 15 0;
#X connect 3 0 16 0;
#X connect 3 1 2 0;
#X connect 3 1 0 1;
#X connect 3 1 9 1;
#X connect 3 1 13 1;
#X connect 4 0 0 0;
#X connect 5 0 1 0;
#X connect 6 0 7 0;
#X connect 7 0 8 0;
#X connect 8 0 20 0;
#X connect 9 0 18 0;
#X connect 10 0 18 0;
#X connect 11 0 9 0;
#X connect 12 0 10 0;
#X connect 13 0 19 0;
#X connect 14 0 19 0;
#X connect 15 0 13 0;
#X connect 16 0 14 0;
#X connect 17 0 24 0;
#X connect 18 0 23 1;
#X connect 19 0 46 0;
#X connect 20 0 21 0;
#X connect 21 0 22 0;
#X connect 22 0 23 0;
#X connect 23 0 25 0;
#X connect 24 0 28 0;
#X connect 25 0 24 0;
#X connect 25 1 24 1;
#X connect 26 0 27 0;
#X connect 27 0 29 0;
#X connect 28 0 26 0;
#X connect 29 0 38 0;
#X connect 30 0 37 0;
#X connect 31 0 30 0;
#X connect 32 0 33 0;
#X connect 32 1 34 1;
#X connect 32 1 35 0;
#X connect 33 0 34 0;
#X connect 35 0 36 0;
#X connect 36 0 30 1;
#X connect 38 0 31 0;
#X connect 39 0 4 0;
#X connect 40 0 5 0;
#X connect 41 0 3 0;
#X connect 42 0 11 0;
#X connect 43 0 12 0;
#X connect 44 0 15 0;
#X connect 45 0 16 0;
#X connect 46 0 32 0;
#X restore 123 428 pd fm-link;
#X obj 105 457 +~;
#N canvas 454 186 450 300 autotune 0;
#X obj 12 123 spigot;
#X obj 68 123 spigot;
#X obj 107 94 == 0;
#X obj 51 65 t b f;
#X obj 12 94 f;
#X obj 68 94 f;
#X obj 12 181 outlet;
#X obj 12 12 inlet;
#N canvas 4 44 1366 685 fixfreq 0;
#X msg 145 828 17.324;
#X msg 128 799 16.352;
#X msg 162 857 18.354;
#X msg 179 799 19.445;
#X msg 197 828 20.602;
#X msg 214 857 21.827;
#X msg 231 799 23.125;
#X msg 248 828 24.5;
#X msg 266 857 25.957;
#X msg 283 799 27.5;
#X msg 300 828 29.135;
#X msg 317 857 30.868;
#X msg 386 828 32.703;
#X obj 67 129 t f f, f 6;
#X obj 67 216 spigot;
#X obj 133 216 spigot;
#X obj 172 187 == 0;
#X obj 67 42 spigot 1;
#X obj 67 100 f;
#X obj 67 71 t f b;
#X msg 120 13 0;
#X obj 133 245 * 0.5;
#X msg 145 13 1;
#X obj 106 158 < 32.704;
#X obj 133 337 f, f 4;
#X obj 133 313 delay 0;
#X obj 133 284 t b f b, f 8;
#X obj 255 347 t f f;
#X obj 297 323 + 1;
#X obj 113 377 t f f f f f f f f f f f f;
#X msg 90 572 999;
#X obj 67 245 t b b f;
#X obj 164 683 t f f;
#X obj 206 654 + 1;
#X msg 182 625 1;
#X obj 164 654 f 1;
#X obj 44 659 change;
#X obj 44 601 min 999;
#X obj 44 572 abs;
#X obj 146 712 f;
#X obj 237 601 f;
#X obj 128 572 t b b, f 16;
#X obj 12 460 t b f;
#X obj 128 770 sel 1 2 3 4 5 6 7 8 9 10 11 12;
#X obj 191 956 *, f 7;
#X obj 237 640 t b f;
#X msg 237 664 2;
#X msg 273 294 0;
#X obj 255 323 f;
#X obj 237 688 pow;
#X obj 191 980 outlet;
#X obj 67 13 inlet;
#X obj 1094 382 r \$1-c;
#X obj 1094 406 == 0;
#X obj 1094 454 + 16.352;
#X obj 1024 382 == 0;
#X obj 1024 358 r \$1-c#;
#X obj 954 358 == 0;
#X obj 954 334 r \$1-d;
#X obj 884 334 == 0;
#X obj 884 310 r \$1-d#;
#X obj 828 406 == 0;
#X obj 758 382 == 0;
#X obj 688 358 == 0;
#X obj 618 334 == 0;
#X obj 828 382 r \$1-e;
#X obj 758 358 r \$1-f;
#X obj 688 334 r \$1-f#;
#X obj 618 310 r \$1-g;
#X obj 828 454 + 20.602;
#X obj 758 430 + 21.827;
#X obj 688 406 + 23.125;
#X obj 618 382 + 24.5;
#X obj 562 406 == 0;
#X obj 492 382 == 0;
#X obj 422 358 == 0;
#X obj 352 334 == 0;
#X obj 562 454 + 25.957;
#X obj 562 382 r \$1-g#;
#X obj 492 358 r \$1-a;
#X obj 422 334 r \$1-a#;
#X obj 352 310 r \$1-b;
#X obj 492 430 + 27.5;
#X obj 422 406 + 29.135;
#X obj 352 382 + 30.868;
#X obj 1094 430 * 99;
#X obj 828 430 * 99;
#X obj 758 406 * 99;
#X obj 688 382 * 99;
#X obj 618 358 * 99;
#X obj 562 430 * 99;
#X obj 492 406 * 99;
#X obj 422 381 * 99;
#X obj 352 358 * 99;
#X obj 1024 430 + 17.324;
#X obj 954 406 + 18.354;
#X obj 884 382 + 19.445;
#X obj 884 358 * 99;
#X obj 954 382 * 99;
#X obj 1024 406 * 99;
#X obj 285 473 - 99;
#X obj 269 449 - 100;
#X obj 253 425 - 101;
#X obj 238 401 - 102;
#X obj 222 473 - 103;
#X obj 206 449 - 104;
#X obj 191 425 - 105;
#X obj 175 401 - 106;
#X obj 159 473 - 107;
#X obj 144 449 - 108;
#X obj 128 425 - 109;
#X obj 113 401 - 110;
#X obj 44 630 t f b;
#X obj 128 741 f;
#X obj 44 683 t f b, f 15;
#X connect 0 0 44 0;
#X connect 1 0 44 0;
#X connect 2 0 44 0;
#X connect 3 0 44 0;
#X connect 4 0 44 0;
#X connect 5 0 44 0;
#X connect 6 0 44 0;
#X connect 7 0 44 0;
#X connect 8 0 44 0;
#X connect 9 0 44 0;
#X connect 10 0 44 0;
#X connect 11 0 44 0;
#X connect 13 0 15 0;
#X connect 13 0 14 0;
#X connect 13 1 23 0;
#X connect 14 0 31 0;
#X connect 15 0 21 0;
#X connect 16 0 15 1;
#X connect 17 0 19 0;
#X connect 18 0 13 0;
#X connect 19 0 18 0;
#X connect 19 1 20 0;
#X connect 19 1 48 0;
#X connect 20 0 17 1;
#X connect 21 0 26 0;
#X connect 22 0 17 1;
#X connect 23 0 16 0;
#X connect 23 0 14 1;
#X connect 24 0 18 0;
#X connect 25 0 24 0;
#X connect 26 0 25 0;
#X connect 26 1 24 1;
#X connect 26 2 48 0;
#X connect 27 0 40 1;
#X connect 27 1 28 0;
#X connect 28 0 48 1;
#X connect 29 0 111 0;
#X connect 29 1 110 0;
#X connect 29 2 109 0;
#X connect 29 3 108 0;
#X connect 29 4 107 0;
#X connect 29 5 106 0;
#X connect 29 6 105 0;
#X connect 29 7 104 0;
#X connect 29 8 103 0;
#X connect 29 9 102 0;
#X connect 29 10 101 0;
#X connect 29 11 100 0;
#X connect 30 0 37 1;
#X connect 31 0 22 0;
#X connect 31 1 47 0;
#X connect 31 1 30 0;
#X connect 31 1 34 0;
#X connect 31 2 29 0;
#X connect 32 0 39 1;
#X connect 32 1 33 0;
#X connect 33 0 35 1;
#X connect 34 0 35 1;
#X connect 35 0 32 0;
#X connect 36 0 114 0;
#X connect 37 0 112 0;
#X connect 38 0 37 0;
#X connect 39 0 113 1;
#X connect 40 0 45 0;
#X connect 41 0 113 0;
#X connect 41 1 40 0;
#X connect 42 0 41 0;
#X connect 42 1 38 0;
#X connect 43 0 1 0;
#X connect 43 1 0 0;
#X connect 43 2 2 0;
#X connect 43 3 3 0;
#X connect 43 4 4 0;
#X connect 43 5 5 0;
#X connect 43 6 6 0;
#X connect 43 7 7 0;
#X connect 43 8 8 0;
#X connect 43 9 9 0;
#X connect 43 10 10 0;
#X connect 43 11 11 0;
#X connect 44 0 50 0;
#X connect 45 0 46 0;
#X connect 45 1 49 1;
#X connect 46 0 49 0;
#X connect 47 0 48 1;
#X connect 48 0 27 0;
#X connect 49 0 44 1;
#X connect 51 0 17 0;
#X connect 52 0 53 0;
#X connect 53 0 85 0;
#X connect 54 0 100 1;
#X connect 55 0 99 0;
#X connect 56 0 55 0;
#X connect 57 0 98 0;
#X connect 58 0 57 0;
#X connect 59 0 97 0;
#X connect 60 0 59 0;
#X connect 61 0 86 0;
#X connect 62 0 87 0;
#X connect 63 0 88 0;
#X connect 64 0 89 0;
#X connect 65 0 61 0;
#X connect 66 0 62 0;
#X connect 67 0 63 0;
#X connect 68 0 64 0;
#X connect 69 0 104 1;
#X connect 70 0 105 1;
#X connect 71 0 106 1;
#X connect 72 0 107 1;
#X connect 73 0 90 0;
#X connect 74 0 91 0;
#X connect 75 0 92 0;
#X connect 76 0 93 0;
#X connect 77 0 108 1;
#X connect 78 0 73 0;
#X connect 79 0 74 0;
#X connect 80 0 75 0;
#X connect 81 0 76 0;
#X connect 82 0 109 1;
#X connect 83 0 110 1;
#X connect 84 0 111 1;
#X connect 85 0 54 0;
#X connect 86 0 69 0;
#X connect 87 0 70 0;
#X connect 88 0 71 0;
#X connect 89 0 72 0;
#X connect 90 0 77 0;
#X connect 91 0 82 0;
#X connect 92 0 83 0;
#X connect 93 0 84 0;
#X connect 94 0 101 1;
#X connect 95 0 102 1;
#X connect 96 0 103 1;
#X connect 97 0 96 0;
#X connect 98 0 95 0;
#X connect 99 0 94 0;
#X connect 100 0 38 0;
#X connect 101 0 38 0;
#X connect 102 0 38 0;
#X connect 103 0 38 0;
#X connect 104 0 38 0;
#X connect 105 0 38 0;
#X connect 106 0 38 0;
#X connect 107 0 38 0;
#X connect 108 0 38 0;
#X connect 109 0 38 0;
#X connect 110 0 38 0;
#X connect 111 0 42 0;
#X connect 112 0 36 0;
#X connect 112 1 35 0;
#X connect 113 0 43 0;
#X connect 114 0 37 1;
#X connect 114 1 39 0;
#X restore 12 152 pd fixfreq;
#X obj 51 41 r \$1-autotune-new;
#X connect 0 0 8 0;
#X connect 1 0 6 0;
#X connect 2 0 1 1;
#X connect 3 0 5 0;
#X connect 3 0 4 0;
#X connect 3 1 2 0;
#X connect 3 1 0 1;
#X connect 4 0 0 0;
#X connect 5 0 1 0;
#X connect 7 0 4 0;
#X connect 7 0 5 0;
#X connect 8 0 6 0;
#X connect 9 0 3 0;
#X restore 163 100 pd autotune;
#X obj 12 13 r \$1-pull-\$3;
#X obj 44 71 s \$0-pull-first;
#X obj 340 181 r \$0-pull-first;
#X obj 123 573 r \$0-pull-first;
#X obj 44 239 r \$0-pull-first;
#X obj 44 1027 change;
#X obj 44 1085 t b f;
#N canvas 937 132 450 244 odd-interv 0;
#X obj 10 10 inlet;
#X obj 143 91 pow, f 5;
#X obj 143 43 t b f;
#X msg 143 67 2;
#X obj 175 67 / 12;
#X obj 143 115 t b f;
#X obj 133 139 *, f 5;
#N canvas 601 197 450 300 odd-interv-link 0;
#X obj 71 189 spigot;
#X obj 127 189 spigot;
#X obj 166 160 == 0;
#X obj 110 131 t b f;
#X obj 71 160 f;
#X obj 127 160 f;
#X obj 71 232 outlet;
#X obj 110 107 r \$1-link-odd-interv;
#X obj 127 78 r \$1-odd-interv-\$3;
#X obj 71 49 r \$1-odd-interv-l;
#X connect 0 0 6 0;
#X connect 1 0 6 0;
#X connect 2 0 1 1;
#X connect 3 0 5 0;
#X connect 3 0 4 0;
#X connect 3 1 2 0;
#X connect 3 1 0 1;
#X connect 4 0 0 0;
#X connect 5 0 1 0;
#X connect 7 0 3 0;
#X connect 8 0 5 0;
#X connect 9 0 4 0;
#X restore 143 19 pd odd-interv-link;
#X obj 133 197 spigot;
#X obj 189 96 loadbang;
#X obj 189 120 f \$2;
#X obj 189 144 % 2;
#X obj 228 173 == 0;
#X obj 189 197 spigot;
#X obj 133 221 outlet;
#X connect 0 0 6 0;
#X connect 0 0 13 0;
#X connect 1 0 5 0;
#X connect 2 0 3 0;
#X connect 2 1 4 0;
#X connect 3 0 1 0;
#X connect 4 0 1 1;
#X connect 5 0 6 0;
#X connect 5 1 6 1;
#X connect 6 0 8 0;
#X connect 7 0 2 0;
#X connect 8 0 14 0;
#X connect 9 0 10 0;
#X connect 10 0 11 0;
#X connect 11 0 8 1;
#X connect 11 0 12 0;
#X connect 12 0 13 1;
#X connect 13 0 14 0;
#X restore 163 283 pd odd-interv;
#X connect 0 0 70 0;
#X connect 0 1 7 1;
#X connect 1 0 2 0;
#X connect 2 0 9 0;
#X connect 3 0 69 0;
#X connect 4 0 24 0;
#X connect 6 0 13 0;
#X connect 7 0 11 0;
#X connect 8 0 2 1;
#X connect 9 0 61 0;
#X connect 10 0 7 0;
#X connect 10 1 72 0;
#X connect 11 0 12 0;
#X connect 12 0 8 0;
#X connect 13 0 14 0;
#X connect 14 0 3 0;
#X connect 15 0 16 0;
#X connect 16 0 17 0;
#X connect 17 0 18 0;
#X connect 18 0 9 1;
#X connect 19 0 76 0;
#X connect 20 0 22 0;
#X connect 21 0 26 0;
#X connect 22 0 21 0;
#X connect 23 0 47 0;
#X connect 23 0 48 0;
#X connect 24 0 0 0;
#X connect 25 0 35 0;
#X connect 25 0 36 0;
#X connect 26 0 5 0;
#X connect 28 0 32 0;
#X connect 29 0 30 0;
#X connect 29 1 31 0;
#X connect 30 0 28 0;
#X connect 31 0 28 1;
#X connect 32 0 33 0;
#X connect 32 1 33 1;
#X connect 33 0 78 0;
#X connect 34 0 42 0;
#X connect 35 0 38 0;
#X connect 36 0 39 0;
#X connect 37 0 36 1;
#X connect 38 0 41 0;
#X connect 39 0 40 0;
#X connect 40 0 15 0;
#X connect 41 0 15 0;
#X connect 42 0 41 0;
#X connect 42 0 40 0;
#X connect 42 1 37 0;
#X connect 42 1 35 1;
#X connect 46 0 13 1;
#X connect 47 0 55 0;
#X connect 48 0 54 0;
#X connect 49 0 48 1;
#X connect 50 0 19 0;
#X connect 51 0 19 0;
#X connect 52 0 51 0;
#X connect 52 0 50 0;
#X connect 52 1 49 0;
#X connect 52 1 47 1;
#X connect 53 0 52 0;
#X connect 54 0 50 0;
#X connect 55 0 51 0;
#X connect 56 0 29 0;
#X connect 57 0 11 1;
#X connect 58 0 22 1;
#X connect 59 0 20 0;
#X connect 60 0 61 1;
#X connect 61 0 64 0;
#X connect 62 0 64 1;
#X connect 63 0 62 0;
#X connect 64 0 27 0;
#X connect 65 0 62 1;
#X connect 66 0 67 0;
#X connect 67 0 62 1;
#X connect 68 0 69 1;
#X connect 69 0 1 0;
#X connect 70 0 33 0;
#X connect 71 0 10 0;
#X connect 73 0 25 0;
#X connect 74 0 63 0;
#X connect 74 0 60 0;
#X connect 75 0 68 0;
#X connect 75 0 6 0;
#X connect 75 0 23 0;
#X connect 76 0 77 0;
#X connect 77 0 20 0;
#X connect 77 1 20 1;
#X connect 78 0 6 1;
